<svg width="562" height="275" viewBox="0 0 562 275" fill="none" xmlns="http://www.w3.org/2000/svg">
<path d="M8.704 128V37.12H73.216V55.296H30.976V74.496H70.912V92.672H30.976V128H8.704ZM85.204 128V37.12H126.804C147.028 37.12 160.084 47.744 160.084 64.128C160.084 75.264 153.812 83.456 143.828 86.528C153.172 87.808 157.908 93.056 158.676 102.144L160.852 128H138.068L136.66 105.856C136.148 99.072 133.204 95.872 124.5 95.872H107.476V128H85.204ZM107.476 77.696H123.348C132.308 77.696 137.3 73.6 137.3 66.432C137.3 59.136 132.308 55.296 123.092 55.296H107.476V77.696ZM167.929 128L200.697 37.12H226.553L259.321 128H236.409L230.521 110.848H196.729L190.713 128H167.929ZM202.745 93.184H224.505L213.753 61.184L202.745 93.184ZM266.704 128V37.12H290.128L323.408 94.08V37.12H345.68V128H322.128L288.976 73.472V128H266.704ZM379.41 128V55.296H352.53V37.12H428.69V55.296H401.81V128H379.41ZM436.954 128V37.12H459.226V128H436.954ZM514.262 130.048C489.174 130.048 470.998 112.512 470.998 82.688C470.998 53.888 487.894 35.072 514.646 35.072C539.094 35.072 552.278 47.36 556.246 69.76L533.078 70.656C531.158 59.776 524.63 53.248 514.646 53.248C501.206 53.248 493.91 65.152 493.91 82.688C493.91 100.608 501.718 111.872 514.518 111.872C525.526 111.872 531.542 105.088 533.206 93.312L556.502 94.208C552.662 117.12 538.454 130.048 514.262 130.048Z" fill="#FF6900"/>
<rect y="70" width="562" height="96" fill="url(#paint0_linear_277_46)"/>
<path d="M146.704 217V126.12H211.216V144.296H168.976V163.496H208.912V181.672H168.976V217H146.704ZM223.204 217V126.12H245.476V217H223.204ZM285.7 217L252.804 126.12H275.716L298.628 191.912L321.412 126.12H344.324L311.3 217H285.7ZM351.704 217V126.12H416.984V144.296H373.976V162.344H415.448V180.52H373.976V198.824H418.008V217H351.704Z" fill="#FF6900"/>
<rect y="179" width="562" height="96" fill="url(#paint1_linear_277_46)"/>
<defs>
<linearGradient id="paint0_linear_277_46" x1="281" y1="166" x2="281" y2="70" gradientUnits="userSpaceOnUse">
<stop offset="0.379808" stop-color="#F1F5F9"/>
<stop offset="1" stop-color="#F1F5F9" stop-opacity="0"/>
</linearGradient>
<linearGradient id="paint1_linear_277_46" x1="281" y1="275" x2="281" y2="179" gradientUnits="userSpaceOnUse">
<stop offset="0.379808" stop-color="#F1F5F9"/>
<stop offset="1" stop-color="#F1F5F9" stop-opacity="0"/>
</linearGradient>
</defs>
</svg>
