<svg xmlns="http://www.w3.org/2000/svg" version="1.1" xmlns:xlink="http://www.w3.org/1999/xlink" width="1000" height="1000"><g clip-path="url(#SvgjsClipPath1354)"><rect width="1000" height="1000" fill="#4d4d4d"></rect><g transform="matrix(11.666666666666666,0,0,11.666666666666666,150,150)"><svg xmlns="http://www.w3.org/2000/svg" version="1.1" xmlns:xlink="http://www.w3.org/1999/xlink" width="60" height="60"><svg width="60" height="60" viewBox="0 0 60 60" fill="none" xmlns="http://www.w3.org/2000/svg">
<rect width="60" height="60" fill="white"></rect>
<rect y="52" width="60" height="8" fill="#D9D9D9"></rect>
<path d="M41.4971 14.518H25.8911L24.3791 23.104L24.4871 23.212C25.5311 22.168 26.6471 21.43 27.8351 20.998C29.0231 20.53 30.3731 20.296 31.8851 20.296C33.7571 20.296 35.4131 20.638 36.8531 21.322C38.2931 22.006 39.4991 22.924 40.4711 24.076C41.4791 25.228 42.2351 26.596 42.7391 28.18C43.2791 29.728 43.5491 31.384 43.5491 33.148C43.5491 35.092 43.1711 36.91 42.4151 38.602C41.6591 40.258 40.6331 41.698 39.3371 42.922C38.0771 44.146 36.6011 45.1 34.9091 45.784C33.2171 46.432 31.4171 46.738 29.5091 46.702C27.6731 46.702 25.9091 46.468 24.2171 46C22.5611 45.496 21.0851 44.74 19.7891 43.732C18.4931 42.724 17.4491 41.482 16.6571 40.006C15.9011 38.494 15.5051 36.748 15.4691 34.768H23.1371C23.3171 36.496 23.9651 37.882 25.0811 38.926C26.1971 39.934 27.6191 40.438 29.3471 40.438C30.3551 40.438 31.2551 40.24 32.0471 39.844C32.8751 39.412 33.5591 38.872 34.0991 38.224C34.6751 37.54 35.1071 36.766 35.3951 35.902C35.7191 35.002 35.8811 34.084 35.8811 33.148C35.8811 32.176 35.7371 31.258 35.4491 30.394C35.1611 29.53 34.7291 28.774 34.1531 28.126C33.5771 27.478 32.8931 26.974 32.1011 26.614C31.3091 26.254 30.3911 26.074 29.3471 26.074C27.9791 26.074 26.8631 26.326 25.9991 26.83C25.1351 27.298 24.3251 28.054 23.5691 29.098H16.6571L20.3831 8.2H41.4971V14.518Z" fill="#414141"></path>
</svg></svg></g></g><defs><clipPath id="SvgjsClipPath1354"><rect width="1000" height="1000" x="0" y="0" rx="350" ry="350"></rect></clipPath></defs></svg>